<?xml version="1.0" encoding="UTF-8" standalone="no"?>
<!-- Created with Inkscape (http://www.inkscape.org/) -->

<svg
   width="512"
   height="512"
   viewBox="0 0 128 128"
   version="1.1"
   id="svg1"
   xml:space="preserve"
   inkscape:version="1.3.2 (091e20ef0f, 2023-11-25, custom)"
   sodipodi:docname="desk_squirrel.svg"
   inkscape:export-filename="desk_squirrel.png"
   inkscape:export-xdpi="96"
   inkscape:export-ydpi="96"
   xmlns:inkscape="http://www.inkscape.org/namespaces/inkscape"
   xmlns:sodipodi="http://sodipodi.sourceforge.net/DTD/sodipodi-0.dtd"
   xmlns="http://www.w3.org/2000/svg"
   xmlns:svg="http://www.w3.org/2000/svg"><sodipodi:namedview
     id="namedview1"
     pagecolor="#505050"
     bordercolor="#ffffff"
     borderopacity="1"
     inkscape:showpageshadow="0"
     inkscape:pageopacity="0"
     inkscape:pagecheckerboard="1"
     inkscape:deskcolor="#505050"
     inkscape:document-units="mm"
     inkscape:zoom="2.5883301"
     inkscape:cx="225.24175"
     inkscape:cy="260.20638"
     inkscape:window-width="3840"
     inkscape:window-height="2048"
     inkscape:window-x="0"
     inkscape:window-y="465"
     inkscape:window-maximized="1"
     inkscape:current-layer="layer1" /><defs
     id="defs1"><clipPath
       clipPathUnits="userSpaceOnUse"
       id="clipPath26"><circle
         style="fill:#000000;fill-opacity:1;stroke:#000000;stroke-width:0.852283;stroke-opacity:1"
         id="circle26"
         cx="64"
         cy="64"
         r="64" /></clipPath><clipPath
       clipPathUnits="userSpaceOnUse"
       id="clipPath27"><circle
         style="fill:#000000;fill-opacity:1;stroke:#000000;stroke-width:0.852283;stroke-opacity:1"
         id="circle27"
         cx="64"
         cy="64"
         r="64" /></clipPath><clipPath
       clipPathUnits="userSpaceOnUse"
       id="clipPath28"><circle
         style="fill:#000000;fill-opacity:1;stroke:#000000;stroke-width:0.852283;stroke-opacity:1"
         id="circle28"
         cx="64"
         cy="64"
         r="64" /></clipPath><clipPath
       clipPathUnits="userSpaceOnUse"
       id="clipPath29"><circle
         style="fill:#000000;fill-opacity:1;stroke:#000000;stroke-width:0.852283;stroke-opacity:1"
         id="circle29"
         cx="64"
         cy="64"
         r="64" /></clipPath></defs><g
     inkscape:label="Layer 1"
     inkscape:groupmode="layer"
     id="layer1"><g
       id="g23"
       inkscape:label="desk"
       clip-path="url(#clipPath29)"><path
         style="fill:#3f0d11;fill-opacity:1;stroke:#3f0f13;stroke-width:0.852283;stroke-opacity:1"
         d="M 141.9371,88.813257 46.891089,65.108314 47.056071,99.004391 142.13122,131.40405 Z"
         id="path18"
         sodipodi:nodetypes="cccccc" /><path
         style="fill:#23080a;fill-opacity:1;stroke:#1d0607;stroke-width:0.852283;stroke-opacity:1"
         d="m 46.462285,86.01646 96.097805,28.6866 -0.42887,16.70099 -95.07515,-32.39966 z"
         id="path19" /></g><g
       id="g24"
       inkscape:label="notebook_and_nuts"
       clip-path="url(#clipPath28)"><path
         style="fill:#5e5c64;fill-opacity:1;stroke:#241f31;stroke-width:0.852283;stroke-opacity:1"
         d="m 55.973316,90.672828 23.90702,-7.797668 41.494124,7.632977 -20.72318,9.660713 z"
         id="path20" /><path
         style="fill:#241f31;fill-opacity:1;stroke:#000000;stroke-width:0.614889;stroke-opacity:1"
         d="m 67.911229,89.563913 17.247976,-5.625712 29.936385,5.506894 -14.95096,6.969826 z"
         id="path20-9" /><path
         style="fill:#241f31;fill-opacity:1;stroke:#000000;stroke-width:0.852283;stroke-opacity:1"
         d="m 82.251534,81.558897 4.569517,-26.432743 39.008689,4.602895 -4.8455,28.748366 z"
         id="path21"
         sodipodi:nodetypes="ccccc" /><path
         style="fill:#26a269;fill-opacity:1;stroke:#26a269;stroke-width:0.852283;stroke-opacity:1"
         d="m 87.945583,57.409896 6.934492,0.625979 z"
         id="path22"
         sodipodi:nodetypes="ccc" /><path
         style="fill:#26a269;fill-opacity:1;stroke:#26a269;stroke-width:0.852283;stroke-opacity:1"
         d="m 87.258447,61.462532 6.934492,0.625979 z"
         id="path22-6"
         sodipodi:nodetypes="ccc" /><path
         style="fill:#26a269;fill-opacity:1;stroke:#26a269;stroke-width:0.852283;stroke-opacity:1"
         d="m 85.821048,68.411544 6.934492,0.625979 z"
         id="path22-8"
         sodipodi:nodetypes="ccc" /><path
         style="fill:#26a269;fill-opacity:1;stroke:#26a269;stroke-width:0.852283;stroke-opacity:1"
         d="m 84.233258,76.37529 6.934492,0.625979 z"
         id="path22-0"
         sodipodi:nodetypes="ccc" /><path
         style="fill:#e5a50a;fill-opacity:1;stroke:#e5a50a;stroke-width:0.852283;stroke-opacity:1"
         d="m 117.63798,60.482627 6.9345,0.625979 z"
         id="path22-5"
         sodipodi:nodetypes="ccc" /><path
         style="fill:#e5a50a;fill-opacity:1;stroke:#e5a50a;stroke-width:0.852283;stroke-opacity:1"
         d="m 116.68628,64.424416 6.9345,0.625979 z"
         id="path22-89"
         sodipodi:nodetypes="ccc" /><path
         style="fill:#e5a50a;fill-opacity:1;stroke:#e5a50a;stroke-width:0.852283;stroke-opacity:1"
         d="m 115.254,72.727731 6.9345,0.625979 z"
         id="path22-89-19"
         sodipodi:nodetypes="ccc" /><path
         style="fill:#e5a50a;fill-opacity:1;stroke:#e5a50a;stroke-width:0.852283;stroke-opacity:1"
         d="m 114.13242,80.788747 6.9345,0.625979 z"
         id="path22-89-4"
         sodipodi:nodetypes="ccc" /><path
         style="fill:#77767b;fill-opacity:1;stroke:#77767b;stroke-width:0.852283;stroke-opacity:1"
         d="M 95.600904,58.147301 102.5354,58.77328 Z"
         id="path22-89-6"
         sodipodi:nodetypes="ccc" /><path
         style="fill:#3d3846;fill-opacity:1;stroke:#3d3846;stroke-width:0.705843;stroke-opacity:1"
         d="m 94.835707,62.188693 4.774057,0.324234 z"
         id="path22-89-3"
         sodipodi:nodetypes="ccc" /><path
         style="fill:#3d3846;fill-opacity:1;stroke:#3d3846;stroke-width:0.705843;stroke-opacity:1"
         d="m 93.175564,68.966436 4.774055,0.324234 z"
         id="path22-89-3-1"
         sodipodi:nodetypes="ccc" /><path
         style="fill:#3d3846;fill-opacity:1;stroke:#3d3846;stroke-width:0.705843;stroke-opacity:1"
         d="m 91.660865,77.04039 4.774057,0.324234 z"
         id="path22-89-3-7"
         sodipodi:nodetypes="ccc" /><path
         style="fill:#3d3846;fill-opacity:1;stroke:#3d3846;stroke-width:0.705843;stroke-opacity:1"
         d="m 96.681123,77.554617 4.774057,0.324234 z"
         id="path22-89-3-9"
         sodipodi:nodetypes="ccc" /><path
         style="fill:#3d3846;fill-opacity:1;stroke:#3d3846;stroke-width:0.705843;stroke-opacity:1"
         d="m 101.65488,78.068844 4.77405,0.324234 z"
         id="path22-89-3-5"
         sodipodi:nodetypes="ccc" /><path
         style="fill:#3d3846;fill-opacity:1;stroke:#9a9996;stroke-width:0.705843;stroke-opacity:1"
         d="m 87.09542,62.70292 4.774057,0.324234 z"
         id="path22-89-3-74"
         sodipodi:nodetypes="ccc" /><path
         style="fill:#3d3846;fill-opacity:1;stroke:#9a9996;stroke-width:0.705843;stroke-opacity:1"
         d="m 92.424765,63.217147 4.774057,0.324234 z"
         id="path22-89-3-74-7"
         sodipodi:nodetypes="ccc" /><path
         style="fill:#3d3846;fill-opacity:1;stroke:#9a9996;stroke-width:0.705843;stroke-opacity:1"
         d="m 88.353679,63.886633 4.774057,0.324234 z"
         id="path22-89-3-74-8"
         sodipodi:nodetypes="ccc" /><path
         style="fill:#3d3846;fill-opacity:1;stroke:#9a9996;stroke-width:0.705843;stroke-opacity:1"
         d="m 93.683024,64.40086 4.774057,0.324234 z"
         id="path22-89-3-74-7-4"
         sodipodi:nodetypes="ccc" /><path
         style="fill:#3d3846;fill-opacity:1;stroke:#9a9996;stroke-width:0.705843;stroke-opacity:1"
         d="M 86.614858,64.798466 91.388915,65.1227 Z"
         id="path22-89-3-74-9"
         sodipodi:nodetypes="ccc" /><path
         style="fill:#3d3846;fill-opacity:1;stroke:#9a9996;stroke-width:0.705843;stroke-opacity:1"
         d="m 91.944203,65.312693 4.774057,0.324234 z"
         id="path22-89-3-74-7-2"
         sodipodi:nodetypes="ccc" /><path
         style="fill:#3d3846;fill-opacity:1;stroke:#9a9996;stroke-width:0.705843;stroke-opacity:1"
         d="m 88.353679,65.936684 4.774057,0.324234 z"
         id="path22-89-3-74-8-9"
         sodipodi:nodetypes="ccc" /><path
         style="fill:#3d3846;fill-opacity:1;stroke:#9a9996;stroke-width:0.705843;stroke-opacity:1"
         d="m 93.683024,66.450911 4.774057,0.324234 z"
         id="path22-89-3-74-7-4-2"
         sodipodi:nodetypes="ccc" /><path
         style="fill:#3d3846;fill-opacity:1;stroke:#9a9996;stroke-width:0.705843;stroke-opacity:1"
         d="m 86.614858,66.848517 4.774057,0.324234 z"
         id="path22-89-3-74-9-6"
         sodipodi:nodetypes="ccc" /><path
         style="fill:#3d3846;fill-opacity:1;stroke:#9a9996;stroke-width:0.705843;stroke-opacity:1"
         d="m 91.944203,67.362744 4.774057,0.324234 z"
         id="path22-89-3-74-7-2-6"
         sodipodi:nodetypes="ccc" /><path
         style="fill:#3d3846;fill-opacity:1;stroke:#9a9996;stroke-width:0.705843;stroke-opacity:1"
         d="m 99.012369,64.798467 4.774061,0.324234 z"
         id="path22-89-3-74-8-0"
         sodipodi:nodetypes="ccc" /><path
         style="fill:#3d3846;fill-opacity:1;stroke:#9a9996;stroke-width:0.705843;stroke-opacity:1"
         d="m 104.34171,65.312694 4.77406,0.324234 z"
         id="path22-89-3-74-7-4-4"
         sodipodi:nodetypes="ccc" /><path
         style="fill:#3d3846;fill-opacity:1;stroke:#9a9996;stroke-width:0.705843;stroke-opacity:1"
         d="m 97.273548,65.7103 4.774062,0.324234 z"
         id="path22-89-3-74-9-8"
         sodipodi:nodetypes="ccc" /><path
         style="fill:#3d3846;fill-opacity:1;stroke:#9a9996;stroke-width:0.705843;stroke-opacity:1"
         d="m 102.60289,66.224527 4.77406,0.324234 z"
         id="path22-89-3-74-7-2-7"
         sodipodi:nodetypes="ccc" /><path
         style="fill:#3d3846;fill-opacity:1;stroke:#9a9996;stroke-width:0.705843;stroke-opacity:1"
         d="m 100.09197,60.939877 4.77406,0.324234 z"
         id="path22-89-3-74-8-7"
         sodipodi:nodetypes="ccc" /><path
         style="fill:#3d3846;fill-opacity:1;stroke:#9a9996;stroke-width:0.705843;stroke-opacity:1"
         d="m 93.17556,59.096201 4.774063,0.324234 z"
         id="path22-89-3-74-7-4-22"
         sodipodi:nodetypes="ccc" /><path
         style="fill:#3d3846;fill-opacity:1;stroke:#9a9996;stroke-width:0.705843;stroke-opacity:1"
         d="m 93.175564,70.225928 4.774057,0.324234 z"
         id="path22-89-3-74-8-94"
         sodipodi:nodetypes="ccc" /><path
         style="fill:#3d3846;fill-opacity:1;stroke:#9a9996;stroke-width:0.705843;stroke-opacity:1"
         d="m 98.504909,70.740155 4.774061,0.324234 z"
         id="path22-89-3-74-7-4-9"
         sodipodi:nodetypes="ccc" /><path
         style="fill:#3d3846;fill-opacity:1;stroke:#9a9996;stroke-width:0.705843;stroke-opacity:1"
         d="M 91.436743,71.137761 96.2108,71.461995 Z"
         id="path22-89-3-74-9-0"
         sodipodi:nodetypes="ccc" /><path
         style="fill:#3d3846;fill-opacity:1;stroke:#9a9996;stroke-width:0.705843;stroke-opacity:1"
         d="m 96.766088,71.651988 4.774052,0.324234 z"
         id="path22-89-3-74-7-2-9"
         sodipodi:nodetypes="ccc" /><path
         style="fill:#3d3846;fill-opacity:1;stroke:#9a9996;stroke-width:0.705843;stroke-opacity:1"
         d="m 101.15259,80.837863 4.77406,0.324234 z"
         id="path22-89-3-74-8-1"
         sodipodi:nodetypes="ccc" /><path
         style="fill:#3d3846;fill-opacity:1;stroke:#9a9996;stroke-width:0.705843;stroke-opacity:1"
         d="m 97.325331,79.291617 4.774059,0.324234 z"
         id="path22-89-3-74-7-4-1"
         sodipodi:nodetypes="ccc" /><path
         style="fill:#3d3846;fill-opacity:1;stroke:#9a9996;stroke-width:0.705843;stroke-opacity:1"
         d="m 97.325331,81.94045 4.774059,0.324234 z"
         id="path22-89-3-74-9-5"
         sodipodi:nodetypes="ccc" /><path
         style="fill:#3d3846;fill-opacity:1;stroke:#9a9996;stroke-width:0.705843;stroke-opacity:1"
         d="m 95.586509,80.20345 4.774051,0.324234 z"
         id="path22-89-3-74-7-2-97"
         sodipodi:nodetypes="ccc" /><path
         style="fill:#3d3846;fill-opacity:1;stroke:#9a9996;stroke-width:0.705843;stroke-opacity:1"
         d="m 89.433277,60.12822 4.77406,0.324234 z"
         id="path22-89-3-74-9-61"
         sodipodi:nodetypes="ccc" /><path
         style="fill:#3d3846;fill-opacity:1;stroke:#9a9996;stroke-width:0.705843;stroke-opacity:1"
         d="m 94.762627,60.642447 4.77405,0.324234 z"
         id="path22-89-3-74-7-2-0"
         sodipodi:nodetypes="ccc" /><path
         style="fill:#c01c28;fill-opacity:1;stroke:#c01c28;stroke-width:0.474974;stroke-opacity:1"
         d="m 116.78896,64.38855 3.86457,0.348855 z"
         id="path22-89-1"
         sodipodi:nodetypes="ccc" /><ellipse
         style="fill:#63452c;fill-opacity:1;stroke:#865e3c;stroke-width:0.852283;stroke-opacity:1"
         id="path23"
         cx="116.05905"
         cy="98.788231"
         rx="5.0461812"
         ry="3.4497406" /><ellipse
         style="fill:#63452c;fill-opacity:1;stroke:#865e3c;stroke-width:0.852283;stroke-opacity:1"
         id="path23-3"
         cx="153.41261"
         cy="14.848462"
         rx="5.0461812"
         ry="3.4497406"
         transform="rotate(32.682813)" /><ellipse
         style="fill:#63452c;fill-opacity:1;stroke:#865e3c;stroke-width:0.852283;stroke-opacity:1"
         id="path23-3-3"
         cx="156.32549"
         cy="19.00293"
         rx="5.0461812"
         ry="3.4497406"
         transform="rotate(32.682813)" /></g><g
       id="g18"
       inkscape:label="squirrel"
       style="display:inline"
       clip-path="url(#clipPath27)"><g
         id="g14"
         transform="matrix(1.0531143,0,0,0.999807,-14.057918,-1.7928612)"
         style="fill:#a51d2d;stroke:#a51d2d"><path
           style="display:inline;fill:#a51d2d;stroke:#a51d2d;stroke-width:0.852283"
           d="M 22.243598,17.428421 34.313978,5.3407755 57.470985,10.232866 76.98446,36.489468 67.286395,58.18059 44.98031,65.798321 34.824193,82.541098 38.737528,103.03402 45.555,117.50724 40.200073,120.31204 28.36189,112.62538 16.226098,93.689436 13.788983,70.796121 28.366615,48.966988 42.900708,36.751031 41.222388,31.962996 31.57351,26.361448 Z"
           id="path12" /><path
           style="display:inline;fill:#a51d2d;stroke:#a51d2d;stroke-width:0.852283"
           d="m 40.200073,120.31204 -2.542007,-22.930827 1.940544,-15.72086 7.521438,-12.904265 13.14178,-5.915482 h 8.95772 l 9.959356,-11.051032 1.808668,-0.751093 1.196501,-5.857269 4.439866,-0.483443 1.61648,3.705512 0.20786,3.57474 1.8325,0.380903 -0.0613,-3.098326 2.75414,-4.41823 3.77304,1.790771 v 9.415125 l 6.063251,12.246787 -1.87069,7.045175 0.50726,6.609725 -1.737161,2.022677 -7.44394,-0.961972 -1.88849,2.570463 4.65354,-0.669585 7.495721,1.763747 2.88184,3.4161 0.66163,3.917542 -6.229011,0.982828 -5.73334,-0.734328 -8.211435,4.222278 -6.088292,0.191307 -0.662268,9.639832 -3.637195,7.13187 -1.70928,2.81999 7.222468,0.5 5.437922,3.65999 L 85.470929,125 c -4.977169,0.82818 -11.308211,1.24973 -15.335071,-0.82649 L 64,121.90088 l -6.465279,0.48185 -10.103762,0.71602 z"
           id="path13"
           sodipodi:nodetypes="cccccccccccccccccccccccccccccccccccccccccc" /></g><g
         id="g17"
         transform="matrix(1.0531143,0,0,0.999807,-9.651606,-0.6773335)"
         style="fill:#000000;stroke:#000000"><path
           style="display:inline;fill:#000000;stroke:#000000;stroke-width:0.852283"
           d="M 22.243598,17.428421 34.313978,5.3407755 57.470985,10.232866 76.98446,36.489468 67.286395,58.18059 44.98031,65.798321 34.824193,82.541098 38.737528,103.03402 45.555,117.50724 40.200073,120.31204 28.36189,112.62538 16.226098,93.689436 13.788983,70.796121 28.366615,48.966988 42.900708,36.751031 41.222388,31.962996 31.57351,26.361448 Z"
           id="path15" /><path
           style="display:inline;fill:#000000;stroke:#000000;stroke-width:0.852283"
           d="m 40.200073,120.31204 -2.542007,-22.930827 1.940544,-15.72086 7.521438,-12.904265 13.14178,-5.915482 h 8.95772 l 9.959356,-11.051032 1.808668,-0.751093 1.196501,-5.857269 4.439866,-0.483443 1.61648,3.705512 0.20786,3.57474 1.8325,0.380903 -0.0613,-3.098326 2.75414,-4.41823 3.77304,1.790771 v 9.415125 l 6.063251,12.246787 -1.87069,7.045175 0.50726,6.609725 -1.737161,2.022677 -7.44394,-0.961972 -1.88849,2.570463 4.65354,-0.669585 7.495721,1.763747 2.88184,3.4161 0.66163,3.917542 -6.229011,0.982828 -5.73334,-0.734328 -8.211435,4.222278 -6.088292,0.191307 -0.662268,9.639832 -3.637195,7.13187 -1.70928,2.81999 7.222468,0.5 5.437922,3.65999 L 85.470929,125 c -4.977169,0.82818 -11.308211,1.24973 -15.335071,-0.82649 L 64,121.90088 l -6.465279,0.48185 -10.103762,0.71602 z"
           id="path16"
           sodipodi:nodetypes="cccccccccccccccccccccccccccccccccccccccccc" /></g></g><g
       id="g26"
       inkscape:label="cape"
       clip-path="url(#clipPath26)"><path
         style="fill:#241f31;fill-opacity:1;stroke:#3d3846;stroke-width:1.04528;stroke-opacity:1"
         d="m 62.690001,59.974953 6.766711,7.863593 2.684852,4.359469 1.600243,1.973996 L 63.380756,73.8221 52.077871,77.902583 43.419777,72.859566 40.234005,69.200633 40.049504,66.63476 53.489569,61.22872 59.563051,59.95124 Z"
         id="path25"
         sodipodi:nodetypes="cccccccccccc" /><path
         style="display:inline;fill:#241f31;fill-opacity:1;stroke:#3d3846;stroke-width:1.04528;stroke-opacity:1"
         d="m 58.12699,58.639258 1.862731,-2.307468 6.241658,1.604004 0.895092,-0.454276 3.715179,5.133158 0.810789,5.666198 2.609579,6.27342 3.827027,4.8255 -4.980524,-4.842766 -8.644635,-7.126548 z"
         id="path24"
         sodipodi:nodetypes="ccccccccccc" /><text
         xml:space="preserve"
         style="font-weight:900;font-size:5.33333px;font-family:'Font Awesome 6 Free';-inkscape-font-specification:'Font Awesome 6 Free Heavy';fill:#a51d2d;fill-opacity:1;stroke:#a51d2d;stroke-width:0.852283;stroke-opacity:1"
         x="81.250702"
         y="-22.609013"
         id="text25"
         transform="rotate(66.727256)"><tspan
           sodipodi:role="line"
           id="tspan25"
           style="font-size:5.33333px;fill:#a51d2d;stroke:#a51d2d;stroke-width:0.852283"
           x="81.250702"
           y="-22.609013">M</tspan></text><text
         xml:space="preserve"
         style="font-weight:900;font-size:4px;font-family:'Font Awesome 6 Free';-inkscape-font-specification:'Font Awesome 6 Free Heavy';fill:#000000;fill-opacity:1;stroke:#000000;stroke-width:0.852283;stroke-opacity:1"
         x="87.129005"
         y="-13.974402"
         id="text26"
         transform="rotate(61.660785)"><tspan
           sodipodi:role="line"
           id="tspan26"
           style="font-size:4px;fill:#000000;stroke:#000000;stroke-width:0.852283"
           x="87.129005"
           y="-13.974402">L</tspan></text></g><circle
       style="fill:none;stroke:#3f2929;stroke-width:1.96924;stroke-dasharray:none;stroke-opacity:1"
       id="path1"
       cx="64"
       cy="64"
       r="63.015381" /></g></svg>
